<?xml version="1.0" encoding="utf-8"?>
<!-- Generator: Adobe Illustrator 26.3.1, SVG Export Plug-In . SVG Version: 6.00 Build 0)  -->
<svg version="1.1" id="Layer_1" xmlns="http://www.w3.org/2000/svg" xmlns:xlink="http://www.w3.org/1999/xlink" x="0px" y="0px"
	 viewBox="0 0 4253.6 1473.1" style="enable-background:new 0 0 4253.6 1473.1;" xml:space="preserve">
<style type="text/css">
	.st0{fill:#FFFFFF;}
	.st1{fill:#1A476F;}
	.st2{fill:#5294CF;}
	.st3{fill:#1F5B98;}
	.st4{fill:#2D72B8;}
</style>
<g id="Layer_1_00000052825165930896182580000018190568106988552894_">
	<path class="st0" d="M1628.7,375.1h126.7c98.3,0,164.3,66.5,164.3,170c0,102.5-64.3,177.3-166.2,177.3h-124.8V375.1z M1680.3,679.2
		h69.7c78.9,0,116-56.8,116-133.3c0-66.3-34-127.6-115.7-127.6h-70V679.2z"/>
	<path class="st0" d="M2014.5,467.8c38.2,115.3,60.9,185,67.1,210.4h0.5c7.7-28.2,25.2-86.2,64.6-210.4h49.4l-90.4,265.4
		c-25.6,74.2-44.9,93.7-98.8,93.7c-9.5,0-19-0.6-28.4-1.7v-41.8c6.8,0.8,13.6,1.3,20.4,1.3c31,0,43.4-13.2,57.4-52.9l-94.8-264
		L2014.5,467.8z"/>
	<path class="st0" d="M2241.5,532c0-22,0-44.6-0.5-64.1h47.7c1.2,7.3,1.9,32.3,1.9,40c9.9-20.7,30.6-46,78.9-46s84.9,30.1,84.9,97.1
		v163.4h-49.1V565c0-36.5-14-61.5-51.3-61.5c-44.5,0-63.4,32.7-63.4,82.6v136.2h-49.1L2241.5,532z"/>
	<path class="st0" d="M2717.5,664.9c0,23.4,2,50.4,3.5,57.5h-47c-2-5.5-3.5-17.9-4-31.7c-9,16.5-28.7,37.7-77.2,37.7
		c-60.3,0-85.9-39.3-85.9-78.2c0-57,45-83.2,120.4-83.2h42.1v-20.5c0-21.6-7.1-47.1-51.8-47.1c-40,0-47.1,19.5-51.5,39h-47.3
		c3.4-37,26.4-76.8,100.4-76.6c63.4,0.2,98.3,25.8,98.3,84.2L2717.5,664.9z M2669.6,599.9h-38.8c-49.1,0-74.1,13.8-74.1,47.5
		c0,24.9,16.8,43.5,47,43.5c58.1,0,65.8-39.3,65.8-83.1L2669.6,599.9z"/>
	<path class="st0" d="M2790.8,533.5c0-22,0-44.8-0.5-65.6h47.2c0.7,7.4,2,25.2,1.9,37.5c11.9-22,33.7-43.5,73.4-43.5
		c36.1,0,60,18.4,69.6,44.3c13.9-23.5,37.5-44.3,80.6-44.3c41.9,0,80.3,25,80.3,93.3v167.2h-48.2V561.1c0-28.3-10.2-57.7-47.8-57.7
		c-39.2,0-56,29-56,72.9v146h-48.1V562.7c0-31.5-8.7-59.1-46.8-59.1c-38.5,0-57,30-57,77.6v141.1h-48.6L2790.8,533.5z"/>
	<path class="st0" d="M3438.5,594.6c0,74-42.8,133.8-121.2,133.8c-74.1,0-118.6-56.4-118.6-132.8c0-75.8,44-133.7,121.6-133.7
		C3391.8,461.8,3438.5,514.7,3438.5,594.6z M3249.1,595.1c0,54.5,26.6,93,70,93c44.2,0,69.1-36.8,69.1-92.7
		c0-56.5-24.8-93.2-70.1-93.2C3273.4,502.1,3249.1,537.8,3249.1,595.1z"/>
	<path class="st0" d="M3500.2,375.1h126.7c98.3,0,164.3,66.5,164.3,170c0,102.5-64.3,177.3-166.2,177.3h-124.8V375.1z M3551.8,679.2
		h69.7c78.9,0,116-56.8,116-133.3c0-66.3-34-127.6-115.7-127.6h-70V679.2z"/>
	<path class="st0" d="M3862.2,375.1H3999c75.4,0,109.1,39.6,109.1,87.1c0,40.1-22.7,66.2-48.8,75.6c24.1,7.9,59.9,32.4,59.9,82.4
		c0,64.3-49.3,102.1-116.7,102.1h-140.4V375.1z M3990.2,518.1c47.6,0,66.2-19.1,66.2-51.2c0-29.7-21.5-50-60.1-50h-83.6v101.2
		L3990.2,518.1z M3912.8,680.5h82.4c43,0,71.1-19.8,71.1-60.9c0-35.9-23.1-59.8-78.3-59.8h-75.1V680.5z"/>
	<path class="st0" d="M1707.3,838.4h-124.5v-9h259.5v9h-125v343h-10V838.4z"/>
	<path class="st0" d="M2026.8,1056.9c0,83.5-44,131.5-110,131.5c-65.5,0-107.5-50.5-107.5-130.5c0-86,48.5-132,110-132
		C1980.3,925.9,2026.8,973.9,2026.8,1056.9z M1819.8,1057.4c0,66,33,122,97,122c64.5,0,99.5-52.5,99.5-122c0-67-34.5-122.5-98-122.5
		C1853.8,934.9,1819.8,991.9,1819.8,1057.4z"/>
	<path class="st0" d="M2294.3,1056.9c0,83.5-44,131.5-110,131.5c-65.5,0-107.5-50.5-107.5-130.5c0-86,48.5-132,110-132
		C2247.8,925.9,2294.3,973.9,2294.3,1056.9z M2087.3,1057.4c0,66,33,122,97,122c64.5,0,99.5-52.5,99.5-122c0-67-34.5-122.5-98-122.5
		C2121.3,934.9,2087.3,991.9,2087.3,1057.4z"/>
	<path class="st0" d="M2361.8,1181.4V805.9h10v375.5H2361.8z"/>
	<path class="st0" d="M2458.8,805.9h10v189.5c13-39,40-68.5,93.5-68.5c59,0,103,45.5,103,124.5c0,97-51.5,136-106,136
		c-49,0-77.5-25-90.5-65.5c0.5,18,0.5,44.5-0.5,59.5h-10c0.5-10,0.5-32,0.5-69V805.9z M2654.8,1051.9c0-74-41.5-115.5-93-115.5
		s-94,32.5-94,122.5c0,68,26,119,91.5,119C2614.3,1177.9,2654.8,1133.9,2654.8,1051.9z"/>
	<path class="st0" d="M2932.8,1056.9c0,83.5-44,131.5-110,131.5c-65.5,0-107.5-50.5-107.5-130.5c0-86,48.5-132,110-132
		C2886.3,925.9,2932.8,973.9,2932.8,1056.9z M2725.8,1057.4c0,66,33,122,97,122c64.5,0,99.5-52.5,99.5-122c0-67-34.5-122.5-98-122.5
		C2759.8,934.9,2725.8,991.9,2725.8,1057.4z"/>
	<path class="st0" d="M2978.8,932.9c47.5,64.5,73.5,98.5,84.5,113.5h0.5c13-16.5,41-53,87-113.5h12.5l-93,120.5l95,128h-13.5
		c-48-67-77-105-88-119.5h-0.5c-11,17-42,57-87.5,119.5h-12.5l93.5-126.5l-91-122H2978.8z"/>
</g>
<g id="Layer_2_00000144332561270190665700000000424512578439662758_">
	<rect x="564.5" y="375.1" class="st1" width="146.2" height="828.3"/>
	<path class="st1" d="M999.6,209.7H579.3c-20.7,0-37.5,16.8-37.5,37.6v118.5h54.9v-94.7c0-6.8,5.5-12.3,12.3-12.3h364.7
		c7.2,0,13,5.8,13,13v94.1h50.5V247.3C1037.2,226.5,1020.4,209.7,999.6,209.7C999.6,209.7,999.6,209.7,999.6,209.7z"/>
	<path class="st2" d="M596.6,445.7H231.8l-4.7,3.3l-99.4,199v12.3l461-0.2"/>
	<path class="st3" d="M596.6,1134.2l-360.8,2l-8.8-6.1l-99.4-198.7v-12.5l461,0.2"/>
	<path class="st4" d="M618,931H127.7V648.2H618"/>
	<path class="st1" d="M606.3,344.9l-1.5,6.7l-8.9,96l0.7,1.4l-8,199.1V931l8,199.1H444.7l0.1,0.2l-0.5-0.2L398.3,931V648.1
		L444.4,449l38.9-73.2h-25l-3.4-30.9l-6.2,3.2l-70,98l1,3L318,648.2V931l61.7,199.1H227.1l122,104.1h106.5l-0.6-0.8l3.3-30.1h25.5
		l16.6,30.9h106l-0.1-0.8l0.4-30.1h44.5"/>
	<polyline class="st4" points="444.5,448.4 444.4,449 596.6,449 624.7,344.9 499.9,344.9 444.5,448.4 	"/>
	<polyline class="st4" points="380.2,448.4 454.9,344.9 349.1,344.9 227.1,449 379.6,449 379.8,448.4 380.2,448.4 	"/>
	<polygon class="st1" points="859.7,1234.3 687.6,1234.3 677.1,1130.4 859.7,1130.4 	"/>
	<polygon class="st1" points="618,1234.7 546.7,1234.7 541.7,1190.2 629.2,1181.7 	"/>
	<polygon class="st2" points="859.7,449 677.1,449.1 670.4,648.2 859.7,648.2 	"/>
	<path class="st4" d="M859.7,931H670.4V648.2h189.3"/>
	<polygon class="st4" points="859.7,344.9 686.7,344.9 677.1,449.1 859.7,449 	"/>
	<polygon class="st3" points="859.7,1130.4 677.1,1130.4 670.4,931 859.7,931 	"/>
	<rect x="868.1" y="375" class="st1" width="146.1" height="828.3"/>
	<path class="st2" d="M990.3,660l461,0.3V648L1352,449l-4.7-3.3l-364.8-0.1"/>
	<path class="st3" d="M990.2,918.9h461v12.5l-99.5,198.7l-8.8,6.1l-360.8-2.2"/>
	<path class="st4" d="M960.9,648l490.3,0.2l-0.1,282.9l-490.3-0.2"/>
	<path class="st1" d="M927.4,1203.2h44.5l0.4,30.1l-0.1,0.8h106l16.6-30.9h25.5l3.3,30.1l-0.6,0.8h106.5l122-104.1l-152.5-0.1
		l61.8-199l0.1-282.9L1199.4,449l1-3l-70-98l-6.2-3.2l-3.4,30.9h-25l38.9,73.2l46.1,199.1l-0.2,282.9l-46.2,199.1l-0.4,0.2l0.1-0.2
		l-151.8-0.1l8-199.1l0.2-282.9l-7.9-199.1l0.7-1.4l-8.9-96l-1.5-6.7"/>
	<polyline class="st4" points="1134.4,448.3 1079.2,344.8 954.3,344.7 982.4,448.9 1134.6,448.9 1134.4,448.3 	"/>
	<polyline class="st4" points="1198.8,448.4 1199.2,448.4 1199.4,449 1351.9,449 1229.9,344.8 1124.1,344.8 1198.8,448.4 	"/>
	<polygon class="st1" points="719,1234 891,1234.1 901.6,1130.2 719,1130.1 	"/>
	<polygon class="st1" points="960.7,1234.6 1032,1234.6 1037,1190 949.5,1181.5 	"/>
	<polygon class="st2" points="719.3,448.8 901.9,449 908.5,648 719.2,647.9 	"/>
	<path class="st4" d="M719.2,647.9l189.3,0.1l-0.1,282.9l-189.3-0.1"/>
	<polygon class="st4" points="719.3,344.6 892.3,344.7 901.9,449 719.3,448.8 	"/>
	<polygon class="st3" points="719,1130.1 901.6,1130.2 908.4,930.9 719.1,930.8 	"/>
	<rect x="127.8" y="783.5" class="st1" width="1323.4" height="4.7"/>
	<path class="st2" d="M757.1,720l65.9,0.1c13.3,0,24.2,10.6,24.6,23.9l2.7,90c0.4,13.6-10.3,24.9-23.9,25.3c-0.2,0-0.5,0-0.7,0H757
		c-13.6,0-24.6-11-24.6-24.6v-90c0-13.6,11-24.6,24.5-24.7C757,720,757.1,720,757.1,720z"/>
	<circle class="st1" cx="791.5" cy="766.2" r="19.6"/>
	<polygon class="st1" points="811.1,830.6 771.8,830.6 786.1,774.7 796.6,774.7 	"/>
</g>
</svg>
