<svg xmlns="http://www.w3.org/2000/svg" viewBox="0 0 4253.61 1473.12"><title>dynamodb-toolbox</title><g id="Layer_1" data-name="Layer 1"><path d="M1628.73,375.09h126.68c98.27,0,164.32,66.54,164.32,170,0,102.46-64.32,177.32-166.18,177.32H1628.73Zm51.54,304.09H1750c78.87,0,116-56.82,116-133.32,0-66.32-34-127.6-115.73-127.6h-70Z"/><path d="M2014.49,467.81c38.23,115.28,60.91,185,67.14,210.37h.5c7.73-28.23,25.23-86.23,64.64-210.37h49.4l-90.36,265.41c-25.59,74.23-44.95,93.68-98.82,93.68a254.73,254.73,0,0,1-28.45-1.72V783.36a172.14,172.14,0,0,0,20.45,1.27c31,0,43.41-13.18,57.37-52.86l-94.82-264Z"/><path d="M2241.49,532c0-22,0-44.59-.5-64.14h47.68c1.23,7.32,1.95,32.32,1.91,40,9.86-20.73,30.59-46,78.91-46S2454.4,492,2454.4,559V722.36h-49.09V565c0-36.55-14-61.46-51.32-61.46-44.5,0-63.41,32.69-63.41,82.64V722.36h-49.09Z"/><path d="M2717.53,664.86c0,23.36,2,50.41,3.5,57.5h-47c-2-5.55-3.5-17.91-4-31.68-9,16.45-28.68,37.68-77.23,37.68-60.27,0-85.95-39.32-85.95-78.18,0-57,45-83.18,120.45-83.18h42.05V546.5c0-21.6-7.05-47.14-51.78-47.14-40,0-47.09,19.45-51.46,39h-47.26c3.45-37,26.36-76.81,100.36-76.59,63.36.23,98.31,25.82,98.31,84.23Zm-47.9-65h-38.78c-49.13,0-74.09,13.82-74.09,47.5,0,24.91,16.82,43.46,47,43.46,58.09,0,65.82-39.32,65.82-83.1Z"/><path d="M2790.76,533.45c0-22,0-44.77-.5-65.64h47.23c.72,7.37,2,25.23,1.91,37.46,11.86-22,33.72-43.46,73.4-43.46,36.14,0,60,18.41,69.55,44.28,13.86-23.5,37.5-44.28,80.59-44.28,41.91,0,80.32,25,80.32,93.32V722.36h-48.18V561.09c0-28.28-10.18-57.73-47.82-57.73-39.18,0-56,29-56,72.95V722.36h-48.13V562.72c0-31.5-8.73-59.14-46.77-59.14-38.5,0-57,30.05-57,77.64V722.36h-48.64Z"/><path d="M3438.53,594.59c0,74-42.82,133.77-121.18,133.77-74.09,0-118.59-56.41-118.59-132.82,0-75.82,44-133.73,121.55-133.73C3391.8,461.81,3438.53,514.72,3438.53,594.59Zm-189.41.5c0,54.5,26.55,92.95,70,92.95,44.23,0,69.05-36.77,69.05-92.73,0-56.5-24.77-93.18-70.05-93.18C3273.39,502.13,3249.12,537.81,3249.12,595.09Z"/><path d="M3500.21,375.09h126.68c98.28,0,164.32,66.54,164.32,170,0,102.46-64.32,177.32-166.18,177.32H3500.21Zm51.54,304.09h69.73c78.87,0,116-56.82,116-133.32,0-66.32-34-127.6-115.73-127.6h-70Z"/><path d="M3862.21,375.09H3999c75.41,0,109.14,39.59,109.14,87.13,0,40.14-22.73,66.23-48.77,75.59,24.09,7.91,59.91,32.41,59.91,82.41,0,64.32-49.32,102.14-116.69,102.14H3862.21Zm128,143c47.55,0,66.23-19.09,66.23-51.19,0-29.73-21.5-50-60.05-50H3912.8V518.09ZM3912.8,680.54h82.37c43,0,71.09-19.82,71.09-60.86,0-35.87-23.05-59.78-78.32-59.78H3912.8Z"/><path d="M1707.32,838.36h-124.5v-9h259.5v9h-125v343h-10Z"/><path d="M2026.82,1056.86c0,83.5-44,131.5-110,131.5-65.5,0-107.5-50.5-107.5-130.5,0-86,48.5-132,110-132C1980.32,925.86,2026.82,973.86,2026.82,1056.86Zm-207,.5c0,66,33,122,97,122,64.5,0,99.5-52.5,99.5-122,0-67-34.5-122.5-98-122.5C1853.82,934.86,1819.82,991.86,1819.82,1057.36Z"/><path d="M2294.32,1056.86c0,83.5-44,131.5-110,131.5-65.5,0-107.5-50.5-107.5-130.5,0-86,48.5-132,110-132C2247.82,925.86,2294.32,973.86,2294.32,1056.86Zm-207,.5c0,66,33,122,97,122,64.5,0,99.5-52.5,99.5-122,0-67-34.5-122.5-98-122.5C2121.32,934.86,2087.32,991.86,2087.32,1057.36Z"/><path d="M2361.81,1181.36V805.86h10v375.5Z"/><path d="M2458.8,805.86h10v189.5c13-39,40-68.5,93.5-68.5,59,0,103,45.5,103,124.5,0,97-51.5,136-106,136-49,0-77.5-25-90.5-65.5.5,18,.5,44.5-.5,59.5h-10c.5-10,.5-32,.5-69Zm196,246c0-74-41.5-115.5-93-115.5s-94,32.5-94,122.5c0,68,26,119,91.5,119C2614.3,1177.86,2654.8,1133.86,2654.8,1051.86Z"/><path d="M2932.8,1056.86c0,83.5-44,131.5-110,131.5-65.5,0-107.5-50.5-107.5-130.5,0-86,48.5-132,110-132C2886.3,925.86,2932.8,973.86,2932.8,1056.86Zm-207,.5c0,66,33,122,97,122,64.5,0,99.5-52.5,99.5-122,0-67-34.5-122.5-98-122.5C2759.8,934.86,2725.8,991.86,2725.8,1057.36Z"/><path d="M2978.8,932.86c47.5,64.5,73.5,98.5,84.5,113.5h.5c13-16.5,41-53,87-113.5h12.5l-93,120.5,95,128h-13.5c-48-67-77-105-88-119.5h-.5c-11,17-42,57-87.5,119.5h-12.5l93.5-126.5-91-122Z"/></g><g id="Layer_2" data-name="Layer 2"><rect x="564.51" y="375.11" width="146.15" height="828.26" style="fill:#1a476f"/><path d="M999.56,209.72H579.34a37.56,37.56,0,0,0-37.55,37.56V365.76H596.7V271.07A12.33,12.33,0,0,1,609,258.75H973.66a13,13,0,0,1,13,12.95v94.06h50.51V247.28A37.56,37.56,0,0,0,999.56,209.72Z" style="fill:#1a476f"/><path d="M596.58,445.71H231.77l-4.7,3.32L127.67,648V660.3l461-.15" style="fill:#5294cf"/><path d="M596.58,1134.21l-360.76,2-8.75-6.08L127.67,931.4V918.89l461,.16" style="fill:#1f5b98"/><path d="M618,931.05H127.67V648.16H618" style="fill:#2d72b8"/><path d="M606.32,344.89l-1.5,6.72-8.94,96,.7,1.43-8,199.11V931.05l8,199.12H444.74l.12.21-.45-.21L398.27,931.05V648.14L444.41,449l38.91-73.2h-25l-3.38-30.94-6.25,3.2-70,98,1,3-61.7,199.11V931.05l61.7,199.12H227.07l122,104.13H455.6l-.58-.8,3.28-30.13h25.53l16.56,30.93h106l-.08-.8.44-30.13h44.5" style="fill:#1a476f"/><polyline points="444.55 448.43 444.41 449.03 596.58 449.03 624.73 344.89 499.88 344.89 444.55 448.43" style="fill:#2d72b8"/><polyline points="380.2 448.43 454.92 344.89 349.09 344.89 227.07 449.03 379.61 449.03 379.81 448.43 380.2 448.43" style="fill:#2d72b8"/><polygon points="859.68 1234.3 687.63 1234.3 677.06 1130.39 859.68 1130.39 859.68 1234.3" style="fill:#1a476f"/><polygon points="617.97 1234.72 546.68 1234.72 541.67 1190.17 629.16 1181.68 617.97 1234.72" style="fill:#1a476f"/><polygon points="859.68 449.03 677.06 449.14 670.41 648.16 859.68 648.16 859.68 449.03" style="fill:#5294cf"/><path d="M859.68,931.05H670.41V648.16H859.68" style="fill:#2d72b8"/><polygon points="859.68 344.89 686.68 344.89 677.06 449.14 859.68 449.03 859.68 344.89" style="fill:#2d72b8"/><polygon points="859.68 1130.39 677.06 1130.39 670.41 931.05 859.68 931.05 859.68 1130.39" style="fill:#1f5b98"/><rect x="868.19" y="374.93" width="146.15" height="828.26" transform="translate(1882.19 1578.53) rotate(-179.98)" style="fill:#1a476f"/><path d="M990.28,660l461,.34V648l-99.32-199-4.7-3.31-364.81-.15" style="fill:#5294cf"/><path d="M990.17,918.89l460.95,0v12.51l-99.49,198.73-8.75,6.08-360.76-2.2" style="fill:#1f5b98"/><path d="M960.94,648l490.3.21-.12,282.89-490.3-.21" style="fill:#2d72b8"/><path d="M927.42,1203.19l44.49,0,.43,30.12-.08.81,106,0,16.57-30.93h25.53l3.27,30.13-.58.8,106.54,0,122-104.08-152.53-.06L1260.88,931,1261,648.1,1199.39,449l1-3-70-98-6.24-3.21-3.4,30.94h-25l38.88,73.21,46.05,199.14L1180.51,931l-46.22,199.1-.44.21.11-.21L982.12,1130l8-199.11L990.29,648l-7.88-199.12.71-1.43-8.91-96-1.49-6.72" style="fill:#1a476f"/><polyline points="1134.44 448.33 1079.15 344.77 954.31 344.72 982.41 448.87 1134.58 448.93 1134.44 448.33" style="fill:#2d72b8"/><polyline points="1198.79 448.36 1199.18 448.36 1199.39 448.96 1351.92 449.02 1229.95 344.84 1124.12 344.79 1198.79 448.36" style="fill:#2d72b8"/><polygon points="718.97 1234.03 891.03 1234.11 901.64 1130.2 719.02 1130.12 718.97 1234.03" style="fill:#1a476f"/><polygon points="960.69 1234.56 1031.97 1234.59 1037 1190.03 949.52 1181.51 960.69 1234.56" style="fill:#1a476f"/><polygon points="719.31 448.75 901.93 448.95 908.5 647.97 719.22 647.89 719.31 448.75" style="fill:#5294cf"/><path d="M719.22,647.89,908.5,648l-.12,282.89-189.28-.08" style="fill:#2d72b8"/><polygon points="719.35 344.62 892.35 344.69 901.93 448.95 719.31 448.75 719.35 344.62" style="fill:#2d72b8"/><polygon points="719.02 1130.12 901.64 1130.2 908.38 930.86 719.1 930.78 719.02 1130.12" style="fill:#1f5b98"/><rect x="127.79" y="783.52" width="1323.45" height="4.7" style="fill:#1a476f"/><path d="M757.13,720l65.94.08a24.6,24.6,0,0,1,24.56,23.87l2.66,90a24.61,24.61,0,0,1-24.6,25.33l-68.64,0a24.61,24.61,0,0,1-24.59-24.61l0-90A24.61,24.61,0,0,1,757.13,720Z" style="fill:#5294cf"/><circle cx="791.45" cy="766.23" r="19.64" style="fill:#1a476f"/><polygon points="811.09 830.63 771.81 830.63 786.14 774.66 796.6 774.66 811.09 830.63" style="fill:#1a476f"/></g></svg>