<?xml version="1.0" encoding="utf-8"?>
<!-- Generator: Adobe Illustrator 26.3.1, SVG Export Plug-In . SVG Version: 6.00 Build 0)  -->
<svg version="1.1" id="Layer_1" xmlns="http://www.w3.org/2000/svg" xmlns:xlink="http://www.w3.org/1999/xlink" x="0px" y="0px"
	 viewBox="0 0 7925.7 1025" style="enable-background:new 0 0 7925.7 1025;" xml:space="preserve">
<style type="text/css">
	.st0{fill:#FFFFFF;}
	.st1{fill:#1A476F;}
	.st2{fill:#5294CF;}
	.st3{fill:#1F5B98;}
	.st4{fill:#2D72B8;}
</style>
<g id="Layer_1_00000064338108510713808510000013793230196547438215_">
	<path class="st0" d="M1605.2,292.9h191.4c148.5,0,248.3,100.5,248.3,256.9c0,154.8-97.2,267.9-251.1,267.9h-188.6V292.9z
		 M1683.1,752.4h105.4c119.2,0,175.3-85.9,175.3-201.5c0-100.2-51.4-192.8-174.9-192.8h-105.8V752.4z"/>
	<path class="st0" d="M2188.1,433c57.8,174.2,92,279.6,101.5,317.9h0.8c11.7-42.7,38.1-130.3,97.7-317.9h74.6L2326.1,834
		c-38.7,112.2-67.9,141.6-149.3,141.6c-14.4-0.1-28.7-0.9-43-2.6v-63.2c10.3,1.3,20.6,1.9,30.9,1.9c46.8,0,65.6-19.9,86.7-79.9
		l-143.3-398.9L2188.1,433z"/>
	<path class="st0" d="M2531.1,530c0-33.2,0-67.4-0.8-96.9h72c1.9,11.1,2.9,48.8,2.9,60.4c14.9-31.3,46.2-69.5,119.2-69.5
		s128.3,45.5,128.3,146.8v246.9h-74.2V579.8c0-55.2-21.2-92.9-77.5-92.9c-67.2,0-95.8,49.4-95.8,124.9v205.8h-74.2L2531.1,530z"/>
	<path class="st0" d="M3250.5,730.7c0,35.3,3,76.2,5.3,86.9h-71c-3-8.4-5.3-27.1-6-47.9c-13.6,24.9-43.3,56.9-116.7,56.9
		c-91.1,0-129.9-59.4-129.9-118.1c0-86.1,68-125.7,182-125.7h63.5v-31c0-32.6-10.7-71.2-78.2-71.2c-60.4,0-71.2,29.4-77.8,58.9
		h-71.4c5.2-55.9,39.8-116.1,151.7-115.7c95.7,0.3,148.6,39,148.6,127.3L3250.5,730.7z M3178.1,632.5h-58.6
		c-74.2,0-112,20.9-112,71.8c0,37.6,25.4,65.7,71,65.7c87.8,0,99.5-59.4,99.5-125.6L3178.1,632.5z"/>
	<path class="st0" d="M3361.1,532.2c0-33.2,0-67.7-0.8-99.2h71.4c1.1,11.1,3,38.1,2.9,56.6c17.9-33.2,51-65.7,110.9-65.7
		c54.6,0,90.7,27.8,105.1,66.9c20.9-35.5,56.7-66.9,121.8-66.9c63.3,0,121.4,37.8,121.4,141v252.7H3821V573.9
		c0-42.7-15.4-87.2-72.3-87.2c-59.2,0-84.6,43.8-84.6,110.2v220.7h-72.7V576.4c0-47.6-13.2-89.4-70.7-89.4
		c-58.2,0-86.1,45.4-86.1,117.3v213.3h-73.5L3361.1,532.2z"/>
	<path class="st0" d="M4340,624.5c0,111.8-64.7,202.1-183.1,202.1c-112,0-179.2-85.2-179.2-200.7c0-114.6,66.5-202.1,183.7-202.1
		C4269.4,423.9,4340,503.9,4340,624.5z M4053.8,625.3c0,82.4,40.1,140.5,105.8,140.5c66.8,0,104.3-55.6,104.3-140.1
		c0-85.4-37.4-140.8-105.9-140.8C4090.4,484.8,4053.8,538.7,4053.8,625.3z"/>
	<path class="st0" d="M4433.2,292.9h191.4c148.5,0,248.3,100.5,248.3,256.9c0,154.8-97.2,267.9-251.1,267.9h-188.6V292.9z
		 M4511.1,752.4h105.4c119.2,0,175.3-85.9,175.3-201.5c0-100.2-51.4-192.8-174.9-192.8h-105.8V752.4z"/>
	<path class="st0" d="M4980.2,292.9h206.7c114,0,164.9,59.8,164.9,131.7c0,60.7-34.3,100.1-73.7,114.2c36.4,12,90.5,49,90.5,124.5
		c0,97.2-74.5,154.3-176.3,154.3h-212.1V292.9z M5173.6,508.9c71.9,0,100.1-28.8,100.1-77.4c0-44.9-32.5-75.6-90.7-75.6h-126.3
		v152.9L5173.6,508.9z M5056.6,754.4h124.5c65,0,107.4-30,107.4-92c0-54.2-34.8-90.3-118.3-90.3h-113.5V754.4z"/>
	<path class="st0" d="M5722.6,315.3h-188.1v-13.6h392.1v13.6h-188.9v518.3h-15.1V315.3z"/>
	<path class="st0" d="M6205.4,645.5c0,126.2-66.5,198.7-166.2,198.7c-99,0-162.4-76.3-162.4-197.2c0-130,73.3-199.5,166.2-199.5
		C6135.1,447.6,6205.4,520.1,6205.4,645.5z M5892.6,646.3c0,99.7,49.9,184.4,146.6,184.4c97.5,0,150.4-79.3,150.4-184.4
		c0-101.2-52.1-185.1-148.1-185.1C5943.9,461.2,5892.6,547.3,5892.6,646.3z"/>
	<path class="st0" d="M6609.6,645.5c0,126.2-66.5,198.7-166.2,198.7c-99,0-162.4-76.3-162.4-197.2c0-130,73.3-199.5,166.2-199.5
		C6539.3,447.6,6609.6,520.1,6609.6,645.5z M6296.8,646.3c0,99.7,49.9,184.4,146.6,184.4c97.5,0,150.4-79.3,150.4-184.4
		c0-101.2-52.1-185.1-148.1-185.1C6348.2,461.2,6296.8,547.3,6296.8,646.3z"/>
	<path class="st0" d="M6711.6,833.7V266.2h15.1v567.4H6711.6z"/>
	<path class="st0" d="M6858.1,266.2h15.1v286.4c19.6-58.9,60.4-103.5,141.3-103.5c89.2,0,155.6,68.8,155.6,188.1
		c0,146.6-77.8,205.5-160.2,205.5c-74,0-117.1-37.8-136.8-99c0.8,27.2,0.8,67.2-0.8,89.9h-15.1c0.8-15.1,0.8-48.4,0.8-104.3V266.2z
		 M7154.3,638c0-111.8-62.7-174.5-140.5-174.5s-142,49.1-142,185.1c0,102.8,39.3,179.8,138.3,179.8
		C7093.1,828.4,7154.3,761.9,7154.3,638z"/>
	<path class="st0" d="M7574.4,645.5c0,126.2-66.5,198.7-166.2,198.7c-99,0-162.4-76.3-162.4-197.2c0-130,73.3-199.5,166.2-199.5
		C7504.1,447.6,7574.4,520.1,7574.4,645.5z M7261.6,646.3c0,99.7,49.9,184.4,146.6,184.4c97.5,0,150.4-79.3,150.4-184.4
		c0-101.2-52.1-185.1-148.1-185.1C7313,461.2,7261.6,547.3,7261.6,646.3z"/>
	<path class="st0" d="M7643.9,458.1c71.8,97.5,111.1,148.8,127.7,171.5h0.8c19.6-24.9,62-80.1,131.5-171.5h18.9l-140.5,182.1
		l143.6,193.4h-20.4c-72.5-101.2-116.4-158.7-133-180.6h-0.8c-16.6,25.7-63.5,86.1-132.2,180.6h-18.9l141.3-191.2l-137.5-184.4
		H7643.9z"/>
</g>
<g id="Layer_2_00000076568633817743123700000000645136258868172426_">
	<rect x="436.8" y="165.4" class="st1" width="146.2" height="828.3"/>
	<path class="st1" d="M871.9,0H451.7c-20.7,0-37.5,16.8-37.5,37.6V156H469V61.4c0-6.8,5.5-12.3,12.3-12.3H846c7.2,0,13,5.8,13,13
		V156h50.5V37.6C909.5,16.8,892.7,0,871.9,0C871.9,0,871.9,0,871.9,0z"/>
	<path class="st2" d="M468.9,236H104.1l-4.7,3.3L0,438.3v12.3l461-0.2"/>
	<path class="st3" d="M468.9,924.5l-360.8,2l-8.8-6.1L0,721.7v-12.5l461,0.2"/>
	<path class="st4" d="M490.3,721.3H0V438.4h490.3"/>
	<path class="st1" d="M478.7,135.2l-1.5,6.7l-8.9,96l0.7,1.4l-8,199.1v282.9l8,199.1H317.1l0.1,0.2l-0.5-0.2l-46.1-199.1V438.4
		l46.1-199.1l38.9-73.2h-25l-3.4-30.9l-6.2,3.2l-70,98l1,3l-61.7,199.1v282.9L252,920.4H99.4l122,104.1h106.5l-0.6-0.8l3.3-30.1
		h25.5l16.6,30.9h106l-0.1-0.8l0.4-30.1h44.5"/>
	<polyline class="st4" points="316.9,238.7 316.7,239.3 468.9,239.3 497.1,135.2 372.2,135.2 316.9,238.7 	"/>
	<polyline class="st4" points="252.5,238.7 327.2,135.2 221.4,135.2 99.4,239.3 251.9,239.3 252.1,238.7 252.5,238.7 	"/>
	<polygon class="st1" points="732,1024.6 560,1024.6 549.4,920.7 732,920.7 	"/>
	<polygon class="st1" points="490.3,1025 419,1025 414,980.5 501.5,972 	"/>
	<polygon class="st2" points="732,239.3 549.4,239.4 542.7,438.4 732,438.4 	"/>
	<path class="st4" d="M732,721.3H542.7V438.4H732"/>
	<polygon class="st4" points="732,135.2 559,135.2 549.4,239.4 732,239.3 	"/>
	<polygon class="st3" points="732,920.7 549.4,920.7 542.7,721.3 732,721.3 	"/>
	<rect x="740.5" y="165.3" class="st1" width="146.1" height="828.3"/>
	<path class="st2" d="M862.6,450.3l461,0.3v-12.3l-99.3-199l-4.7-3.3l-364.8-0.1"/>
	<path class="st3" d="M862.5,709.2h460.9v12.5L1224,920.4l-8.8,6.1l-360.8-2.2"/>
	<path class="st4" d="M833.3,438.3l490.3,0.2l-0.1,282.9l-490.3-0.2"/>
	<path class="st1" d="M799.8,993.5h44.5l0.4,30.1l-0.1,0.8h106l16.6-30.9h25.5l3.3,30.1l-0.6,0.8h106.5l122-104.1l-152.5-0.1
		l61.8-199l0.1-282.9l-61.6-199.1l1-3l-70-98l-6.2-3.2l-3.4,30.9h-25l38.9,73.2l46,199.1l-0.2,282.9l-46.2,199.1l-0.4,0.2l0.1-0.2
		l-151.8-0.1l8-199.1l0.2-282.9l-7.9-199.1l0.7-1.4l-8.9-96l-1.5-6.7"/>
	<polyline class="st4" points="1006.8,238.6 951.5,135.1 826.6,135 854.7,239.2 1006.9,239.2 1006.8,238.6 	"/>
	<polyline class="st4" points="1071.1,238.6 1071.5,238.6 1071.7,239.2 1224.2,239.3 1102.3,135.1 996.5,135.1 1071.1,238.6 	"/>
	<polygon class="st1" points="591.3,1024.3 763.4,1024.4 774,920.5 591.4,920.4 	"/>
	<polygon class="st1" points="833,1024.8 904.3,1024.9 909.3,980.3 821.9,971.8 	"/>
	<polygon class="st2" points="591.6,239 774.3,239.2 780.8,438.2 591.5,438.2 	"/>
	<path class="st4" d="M591.5,438.2l189.3,0.1l-0.1,282.9l-189.3-0.1"/>
	<polygon class="st4" points="591.7,134.9 764.7,135 774.3,239.2 591.6,239 	"/>
	<polygon class="st3" points="591.4,920.4 774,920.5 780.7,721.1 591.4,721.1 	"/>
	<rect x="0.1" y="573.8" class="st1" width="1323.4" height="4.7"/>
	<path class="st2" d="M629.5,510.3l65.9,0.1c13.3,0,24.2,10.6,24.6,23.9l2.7,90c0.4,13.6-10.3,24.9-23.9,25.3c-0.2,0-0.5,0-0.7,0
		h-68.6c-13.6,0-24.6-11-24.6-24.6v-90c0-13.6,11-24.6,24.5-24.7C629.4,510.3,629.4,510.3,629.5,510.3z"/>
	<circle class="st1" cx="663.8" cy="556.5" r="19.6"/>
	<polygon class="st1" points="683.4,620.9 644.1,620.9 658.5,564.9 668.9,564.9 	"/>
</g>
</svg>
